<svg width="94" height="24" viewBox="0 0 94 24" fill="none" xmlns="http://www.w3.org/2000/svg">
<path d="M0.72 19L6.768 1.24H11.688L17.736 19H13.848L12.72 15.52H5.76L4.608 19H0.72ZM6.792 12.304H11.688L9.24 4.888L6.792 12.304ZM19.8373 19V6.28H23.4613V8.128H23.5813C23.7253 7.792 23.9253 7.464 24.1813 7.144C24.4373 6.824 24.7893 6.56 25.2373 6.352C25.6853 6.144 26.2613 6.04 26.9653 6.04C27.3173 6.04 27.5973 6.064 27.8053 6.112C28.0133 6.144 28.1173 6.16 28.1173 6.16V9.76C28.1173 9.76 27.9973 9.736 27.7573 9.688C27.5333 9.64 27.2373 9.616 26.8693 9.616C25.7333 9.616 24.8853 9.928 24.3253 10.552C23.7653 11.16 23.4853 12.16 23.4853 13.552V19H19.8373ZM36.195 19.24C35.203 19.24 34.411 19.096 33.819 18.808C33.227 18.504 32.779 18.128 32.475 17.68C32.171 17.216 31.971 16.728 31.875 16.216C31.779 15.704 31.731 15.232 31.731 14.8V9.184H29.571V6.28H31.731V3.136H35.379V6.28H38.091V9.184H35.379V14.704C35.379 15.232 35.515 15.64 35.787 15.928C36.075 16.216 36.547 16.36 37.203 16.36C37.491 16.36 37.755 16.336 37.995 16.288C38.235 16.24 38.355 16.216 38.355 16.216V19.024C38.355 19.024 38.139 19.056 37.707 19.12C37.275 19.2 36.771 19.24 36.195 19.24ZM42.9504 4.552C42.3104 4.552 41.7904 4.352 41.3904 3.952C40.9904 3.536 40.7904 3.048 40.7904 2.488C40.7904 1.896 40.9904 1.4 41.3904 0.999999C41.7904 0.583999 42.3104 0.375999 42.9504 0.375999C43.5584 0.375999 44.0704 0.583999 44.4864 0.999999C44.9024 1.4 45.1104 1.896 45.1104 2.488C45.1104 3.048 44.9024 3.536 44.4864 3.952C44.0704 4.352 43.5584 4.552 42.9504 4.552ZM41.1264 19V6.28H44.7744V19H41.1264ZM53.244 19.24C52.188 19.24 51.316 19.096 50.628 18.808C49.94 18.52 49.388 18.168 48.972 17.752C48.572 17.32 48.268 16.896 48.06 16.48C47.868 16.048 47.74 15.688 47.676 15.4C47.628 15.112 47.604 14.968 47.604 14.968H50.988C50.988 14.968 51.012 15.048 51.06 15.208C51.108 15.368 51.212 15.552 51.372 15.76C51.548 15.968 51.796 16.152 52.116 16.312C52.436 16.472 52.868 16.552 53.412 16.552C54.084 16.552 54.54 16.416 54.78 16.144C55.036 15.872 55.164 15.6 55.164 15.328C55.164 14.752 54.692 14.368 53.748 14.176L52.02 13.84C51.284 13.696 50.588 13.488 49.932 13.216C49.292 12.928 48.772 12.536 48.372 12.04C47.988 11.528 47.796 10.872 47.796 10.072C47.796 9.304 47.996 8.616 48.396 8.008C48.796 7.4 49.364 6.92 50.1 6.568C50.852 6.216 51.748 6.04 52.788 6.04C53.764 6.04 54.572 6.176 55.212 6.448C55.868 6.704 56.388 7.032 56.772 7.432C57.156 7.816 57.444 8.208 57.636 8.608C57.828 8.992 57.948 9.32 57.996 9.592C58.06 9.848 58.092 9.976 58.092 9.976H54.828C54.828 9.976 54.78 9.872 54.684 9.664C54.588 9.44 54.388 9.224 54.084 9.016C53.796 8.792 53.348 8.68 52.74 8.68C52.116 8.68 51.684 8.808 51.444 9.064C51.204 9.304 51.084 9.56 51.084 9.832C51.084 10.152 51.22 10.392 51.492 10.552C51.78 10.712 52.148 10.84 52.596 10.936L54.252 11.272C55.468 11.512 56.468 11.936 57.252 12.544C58.036 13.136 58.428 14 58.428 15.136C58.428 15.904 58.228 16.6 57.828 17.224C57.428 17.848 56.844 18.344 56.076 18.712C55.308 19.064 54.364 19.24 53.244 19.24ZM66.4763 19.24C65.4843 19.24 64.6923 19.096 64.1003 18.808C63.5083 18.504 63.0603 18.128 62.7563 17.68C62.4523 17.216 62.2523 16.728 62.1562 16.216C62.0603 15.704 62.0123 15.232 62.0123 14.8V9.184H59.8523V6.28H62.0123V3.136H65.6603V6.28H68.3723V9.184H65.6603V14.704C65.6603 15.232 65.7963 15.64 66.0683 15.928C66.3563 16.216 66.8283 16.36 67.4843 16.36C67.7723 16.36 68.0363 16.336 68.2763 16.288C68.5163 16.24 68.6363 16.216 68.6363 16.216V19.024C68.6363 19.024 68.4203 19.056 67.9883 19.12C67.5563 19.2 67.0523 19.24 66.4763 19.24ZM71.0717 19V6.28H74.6957V8.128H74.8157C74.9597 7.792 75.1597 7.464 75.4157 7.144C75.6717 6.824 76.0237 6.56 76.4717 6.352C76.9197 6.144 77.4957 6.04 78.1997 6.04C78.5517 6.04 78.8317 6.064 79.0397 6.112C79.2477 6.144 79.3517 6.16 79.3517 6.16V9.76C79.3517 9.76 79.2317 9.736 78.9917 9.688C78.7677 9.64 78.4717 9.616 78.1037 9.616C76.9677 9.616 76.1197 9.928 75.5597 10.552C74.9997 11.16 74.7197 12.16 74.7197 13.552V19H71.0717ZM82.5334 23.68C82.1014 23.68 81.7574 23.664 81.5014 23.632C81.2454 23.6 81.1174 23.584 81.1174 23.584V20.656C81.1174 20.656 81.2214 20.664 81.4294 20.68C81.6534 20.696 81.9254 20.704 82.2454 20.704C83.0134 20.704 83.6454 20.592 84.1414 20.368C84.6374 20.16 85.0694 19.744 85.4374 19.12L80.7334 6.28H84.3814L87.3334 14.896L90.2134 6.28H93.8854L89.3254 18.496C88.9094 19.664 88.4054 20.632 87.8134 21.4C87.2374 22.168 86.5254 22.736 85.6774 23.104C84.8294 23.488 83.7814 23.68 82.5334 23.68Z" fill="#191B20"/>
</svg>
